HIERARCHY
ROOT Hips
{
    OFFSET 0.000000 99.379997 0.000000
    CHANNELS 6 Xposition Yposition Zposition Xrotation Yrotation Zrotation
    JOINT RightUpLeg
    {
        OFFSET -10.280000 0.000000 0.000000
        CHANNELS 3 Xrotation Yrotation Zrotation
        JOINT RightLeg
        {
            OFFSET 0.000000 -45.650002 0.000000
            CHANNELS 3 Xrotation Yrotation Zrotation
            JOINT RightFoot
            {
                OFFSET 0.000000 -45.650002 0.000000
                CHANNELS 3 Xrotation Yrotation Zrotation
                JOINT RightToeBase
                {
                    OFFSET 0.000000 -8.080000 14.711000
                    CHANNELS 3 Xrotation Yrotation Zrotation
                    End Site
                    {
                        OFFSET 0.000000 0.000000 6.304715
                    }
                }
            }
        }
    }
    JOINT LeftUpLeg
    {
        OFFSET 10.280000 0.000000 0.000000
        CHANNELS 3 Xrotation Yrotation Zrotation
        JOINT LeftLeg
        {
            OFFSET 0.000000 -45.650002 0.000000
            CHANNELS 3 Xrotation Yrotation Zrotation
            JOINT LeftFoot
            {
                OFFSET 0.000000 -45.650002 0.000000
                CHANNELS 3 Xrotation Yrotation Zrotation
                JOINT LeftToeBase
                {
                    OFFSET 0.000000 -8.080000 14.711000
                    CHANNELS 3 Xrotation Yrotation Zrotation
                    End Site
                    {
                        OFFSET 0.000000 0.000000 6.304715
                    }
                }
            }
        }
    }
    JOINT Spine
    {
        OFFSET 0.000000 8.542999 0.000000
        CHANNELS 3 Xrotation Yrotation Zrotation
        JOINT Spine1
        {
            OFFSET 0.000000 18.916000 0.000000
            CHANNELS 3 Xrotation Yrotation Zrotation
            JOINT Spine2
            {
                OFFSET 0.000000 13.424004 0.000000
                CHANNELS 3 Xrotation Yrotation Zrotation
                JOINT Neck
                {
                    OFFSET 0.000000 20.136993 0.000000
                    CHANNELS 3 Xrotation Yrotation Zrotation
                    JOINT Head
                    {
                        OFFSET 0.000000 10.250000 0.000000
                        CHANNELS 3 Xrotation Yrotation Zrotation
                        End Site
                        {
                            OFFSET 0.000000 17.429993 0.000000
                        }
                    }
                }
                JOINT RightShoulder
                {
                    OFFSET -6.906623 14.035004 0.000000
                    CHANNELS 3 Xrotation Yrotation Zrotation
                    JOINT RightArm
                    {
                        OFFSET -10.308376 0.000000 0.000000
                        CHANNELS 3 Xrotation Yrotation Zrotation
                        JOINT RightForeArm
                        {
                            OFFSET -28.780003 0.000000 0.000000
                            CHANNELS 3 Xrotation Yrotation Zrotation
                            JOINT RightHand
                            {
                                OFFSET -28.260002 0.000000 0.000000
                                CHANNELS 3 Xrotation Yrotation Zrotation
                                JOINT RightHandThumb1
                                {
                                    OFFSET -2.000000 -0.500000 2.600000
                                    CHANNELS 3 Xrotation Yrotation Zrotation
                                    JOINT RightHandThumb2
                                    {
                                        OFFSET -3.499954 -1.034760 1.632056
                                        CHANNELS 3 Xrotation Yrotation Zrotation
                                        JOINT RightHandThumb3
                                        {
                                            OFFSET -2.775887 0.060043 0.090174
                                            CHANNELS 3 Xrotation Yrotation Zrotation
                                            End Site
                                            {
                                                OFFSET -2.618004 0.056625 0.085045
                                            }
                                        }
                                    }
                                }
                                JOINT RightHandIndex1
                                {
                                    OFFSET -9.164001 0.453003 3.233000
                                    CHANNELS 3 Xrotation Yrotation Zrotation
                                    JOINT RightHandIndex2
                                    {
                                        OFFSET -3.930000 0.000000 0.000000
                                        CHANNELS 3 Xrotation Yrotation Zrotation
                                        JOINT RightHandIndex3
                                        {
                                            OFFSET -2.227997 0.000000 0.000000
                                            CHANNELS 3 Xrotation Yrotation Zrotation
                                            End Site
                                            {
                                                OFFSET -1.959999 0.000000 0.000000
                                            }
                                        }
                                    }
                                }
                                JOINT RightHandMiddle1
                                {
                                    OFFSET -9.289993 0.470993 1.163000
                                    CHANNELS 3 Xrotation Yrotation Zrotation
                                    JOINT RightHandMiddle2
                                    {
                                        OFFSET -4.288002 0.000000 0.000000
                                        CHANNELS 3 Xrotation Yrotation Zrotation
                                        JOINT RightHandMiddle3
                                        {
                                            OFFSET -2.688004 0.000000 0.000000
                                            CHANNELS 3 Xrotation Yrotation Zrotation
                                            End Site
                                            {
                                                OFFSET -2.143997 0.000000 0.000000
                                            }
                                        }
                                    }
                                }
                                JOINT RightHandRing1
                                {
                                    OFFSET -8.685997 0.559998 -0.660000
                                    CHANNELS 3 Xrotation Yrotation Zrotation
                                    JOINT RightHandRing2
                                    {
                                        OFFSET -3.737000 0.000000 0.000000
                                        CHANNELS 3 Xrotation Yrotation Zrotation
                                        JOINT RightHandRing3
                                        {
                                            OFFSET -2.593002 0.000000 0.000000
                                            CHANNELS 3 Xrotation Yrotation Zrotation
                                            End Site
                                            {
                                                OFFSET -2.015999 0.000000 0.000000
                                            }
                                        }
                                    }
                                }
                                JOINT RightHandPinky1
                                {
                                    OFFSET -7.928001 0.485992 -2.489000
                                    CHANNELS 3 Xrotation Yrotation Zrotation
                                    JOINT RightHandPinky2
                                    {
                                        OFFSET -2.993004 0.000000 0.000000
                                        CHANNELS 3 Xrotation Yrotation Zrotation
                                        JOINT RightHandPinky3
                                        {
                                            OFFSET -1.890999 0.000000 0.000000
                                            CHANNELS 3 Xrotation Yrotation Zrotation
                                            End Site
                                            {
                                                OFFSET -1.786003 0.000000 0.000000
                                            }
                                        }
                                    }
                                }
                            }
                        }
                    }
                }
                JOINT LeftShoulder
                {
                    OFFSET 6.906623 14.035004 0.000000
                    CHANNELS 3 Xrotation Yrotation Zrotation
                    JOINT LeftArm
                    {
                        OFFSET 10.308376 0.000000 0.000000
                        CHANNELS 3 Xrotation Yrotation Zrotation
                        JOINT LeftForeArm
                        {
                            OFFSET 28.780003 0.000000 0.000000
                            CHANNELS 3 Xrotation Yrotation Zrotation
                            JOINT LeftHand
                            {
                                OFFSET 28.260002 0.000000 0.000000
                                CHANNELS 3 Xrotation Yrotation Zrotation
                                JOINT LeftHandThumb1
                                {
                                    OFFSET 2.000000 -0.500000 2.600000
                                    CHANNELS 3 Xrotation Yrotation Zrotation
                                    JOINT LeftHandThumb2
                                    {
                                        OFFSET 3.527901 -1.034760 1.570724
                                        CHANNELS 3 Xrotation Yrotation Zrotation
                                        JOINT LeftHandThumb3
                                        {
                                            OFFSET 2.777039 0.060043 0.041714
                                            CHANNELS 3 Xrotation Yrotation Zrotation
                                            End Site
                                            {
                                                OFFSET 2.619095 0.056625 0.039341
                                            }
                                        }
                                    }
                                }
                                JOINT LeftHandIndex1
                                {
                                    OFFSET 9.164001 0.453003 3.233000
                                    CHANNELS 3 Xrotation Yrotation Zrotation
                                    JOINT LeftHandIndex2
                                    {
                                        OFFSET 3.930000 0.000000 0.000000
                                        CHANNELS 3 Xrotation Yrotation Zrotation
                                        JOINT LeftHandIndex3
                                        {
                                            OFFSET 2.227997 0.000000 0.000000
                                            CHANNELS 3 Xrotation Yrotation Zrotation
                                            End Site
                                            {
                                                OFFSET 1.959999 0.000000 0.000000
                                            }
                                        }
                                    }
                                }
                                JOINT LeftHandMiddle1
                                {
                                    OFFSET 9.289993 0.470993 1.163000
                                    CHANNELS 3 Xrotation Yrotation Zrotation
                                    JOINT LeftHandMiddle2
                                    {
                                        OFFSET 4.288002 0.000000 0.000000
                                        CHANNELS 3 Xrotation Yrotation Zrotation
                                        JOINT LeftHandMiddle3
                                        {
                                            OFFSET 2.688004 0.000000 0.000000
                                            CHANNELS 3 Xrotation Yrotation Zrotation
                                            End Site
                                            {
                                                OFFSET 2.143997 0.000000 0.000000
                                            }
                                        }
                                    }
                                }
                                JOINT LeftHandRing1
                                {
                                    OFFSET 8.685997 0.559998 -0.660000
                                    CHANNELS 3 Xrotation Yrotation Zrotation
                                    JOINT LeftHandRing2
                                    {
                                        OFFSET 3.737000 0.000000 0.000000
                                        CHANNELS 3 Xrotation Yrotation Zrotation
                                        JOINT LeftHandRing3
                                        {
                                            OFFSET 2.593002 0.000000 0.000000
                                            CHANNELS 3 Xrotation Yrotation Zrotation
                                            End Site
                                            {
                                                OFFSET 2.015999 0.000000 0.000000
                                            }
                                        }
                                    }
                                }
                                JOINT LeftHandPinky1
                                {
                                    OFFSET 7.928001 0.485992 -2.489000
                                    CHANNELS 3 Xrotation Yrotation Zrotation
                                    JOINT LeftHandPinky2
                                    {
                                        OFFSET 2.993004 0.000000 0.000000
                                        CHANNELS 3 Xrotation Yrotation Zrotation
                                        JOINT LeftHandPinky3
                                        {
                                            OFFSET 1.890999 0.000000 0.000000
                                            CHANNELS 3 Xrotation Yrotation Zrotation
                                            End Site
                                            {
                                                OFFSET 1.786003 0.000000 0.000000
                                            }
                                        }
                                    }
                                }
                            }
                        }
                    }
                }
            }
        }
    }
}
MOTION
Frames: 6
Frame Time: 0.011111
0.000000 96.500000 0.000000 -0.000000 0.000000 -0.000000 -0.000000 0.000000 -0.000000 -0.000000 0.000000 -0.000000 -0.000000 0.000000 -0.000000 0.000000 0.000000 0.000000 -0.000000 0.000000 -0.000000 -0.000000 0.000000 -0.000000 -0.000000 0.000000 -0.000000 0.000000 0.000000 0.000000 -0.000000 0.000000 -0.000000 -0.000000 0.000000 -0.000000 -0.000000 0.000000 -0.000000 -0.000000 0.000000 -0.000000 -0.000000 0.000000 -0.000000 -0.000000 0.000000 -0.000000 -0.000000 0.000000 -0.000000 -0.000000 0.000000 -0.000000 -0.000000 0.000000 -0.000000 -0.000000 0.000000 -0.000000 0.000000 0.000000 -0.000000 0.000000 0.000000 -0.000000 -0.000000 0.000000 -0.000000 -0.000000 0.000000 -0.000000 -0.000000 0.000000 -0.000000 -0.000000 0.000000 -0.000000 -0.000000 0.000000 -0.000000 -0.000000 0.000000 -0.000000 -0.000000 0.000000 -0.000000 -0.000000 0.000000 -0.000000 -0.000000 0.000000 -0.000000 -0.000000 0.000000 -0.000000 -0.000000 0.000000 -0.000000 -0.000000 0.000000 -0.000000 -0.000000 0.000000 -0.000000 -0.000000 0.000000 -0.000000 -0.000000 0.000000 -0.000000 -0.000000 0.000000 -0.000000 -0.000000 0.000000 -0.000000 -0.000000 0.000000 -0.000000 0.000000 -0.000000 0.000000 -0.000000 0.000000 -0.000000 -0.000000 0.000000 -0.000000 -0.000000 0.000000 -0.000000 -0.000000 0.000000 -0.000000 -0.000000 0.000000 -0.000000 -0.000000 0.000000 -0.000000 -0.000000 0.000000 -0.000000 -0.000000 0.000000 -0.000000 -0.000000 0.000000 -0.000000 -0.000000 0.000000 -0.000000 -0.000000 0.000000 -0.000000 -0.000000 0.000000 -0.000000
5.945028 102.384903 -96.725296 78.664200 70.376831 -57.285503 148.338135 -170.119476 162.099411 13.102517 -0.777716 -3.298634 175.226242 -176.627686 -179.314148 0.000000 0.000000 0.000000 154.918533 177.600906 177.711121 3.524843 -23.711782 -3.514666 0.111595 -3.539358 -1.416808 0.000000 0.000000 0.000000 0.986813 -3.361906 4.906646 1.164631 -3.340008 8.177603 5.100625 -15.574749 10.807818 176.269287 -179.999985 176.090576 166.189575 -135.786285 170.973999 1.754747 13.813924 4.664660 159.361923 152.979095 -159.464111 179.065125 170.030182 171.204941 12.131063 -6.367852 -7.738438 59.583359 8.634928 -7.971341 111.579872 -142.792572 -146.218399 179.655106 -163.119827 -179.882019 0.000287 15.000619 16.153021 0.000334 0.000400 13.216186 0.000289 0.000241 9.251309 0.000090 0.000301 75.411041 0.000321 -0.000006 75.410973 0.000039 -0.000204 50.223759 0.000030 -9.999816 79.507797 0.000198 -0.000017 79.507782 0.000014 -0.000138 52.952160 0.000042 -19.999786 80.454697 0.000001 0.000008 110.000015 179.999985 179.999985 -100.000000 1.202763 -4.860532 -12.993366 3.282781 -35.174641 -62.686951 172.128204 -137.495148 174.903320 19.545675 -5.189513 5.428612 43.241112 3.351524 23.897764 105.509933 150.165390 150.450333 179.758728 168.395660 179.913147 0.000019 -15.000004 -41.159256 0.000021 0.000004 -33.675785 0.000002 0.000010 -23.573053 0.000005 0.000004 -42.431175 0.000004 0.000004 -42.431187 0.000005 -0.000009 -28.259178 0.000004 10.000009 -44.039669 0.000005 -0.000005 -44.039703 0.000002 -0.000001 -29.330397 0.000013 20.000002 -48.655514 0.000006 0.000014 -72.983307 180.000000 179.999985 131.393173
5.958616 102.405426 -96.773140 78.690811 70.392296 -57.261776 148.288940 -170.058380 161.987244 13.114326 -0.577569 -3.307816 175.236923 -176.593887 -179.302612 0.000000 0.000000 0.000000 154.898117 177.528519 177.666351 3.546152 -24.002552 -3.548271 0.142118 -3.390921 -1.409863 0.000000 0.000000 0.000000 0.988204 -3.358890 4.904474 1.165715 -3.337036 8.173986 5.095563 -15.561620 10.802397 176.237793 -179.999985 176.077484 166.105194 -135.788132 170.943100 1.764758 13.797625 4.672384 159.440598 152.960892 -159.616638 178.818436 170.107819 171.235260 12.199346 -6.244377 -7.758614 59.348717 8.538914 -8.012524 111.565331 -142.809586 -146.227234 179.654984 -163.133530 -179.881973 0.000629 15.000669 15.718835 0.000624 0.000411 12.860991 0.000483 0.000173 9.002687 0.000083 0.000176 75.168251 0.000178 -0.000027 75.168304 0.000011 -0.000112 50.062035 0.000003 -10.000009 79.353516 180.000000 179.999985 -100.646416 180.000000 179.999985 -127.150558 0.000017 -20.000015 80.292442 0.000011 -0.000008 110.000038 0.000015 0.000019 79.999947 1.200080 -4.868291 -12.993711 3.313321 -35.224125 -62.640820 172.086349 -137.472412 174.891220 19.519327 -5.147836 5.463355 43.246342 3.350051 23.872660 105.516968 150.154068 150.446732 179.758560 168.387054 179.913132 0.000008 -15.000008 -41.195751 0.000005 -0.000001 -33.705585 0.000001 0.000006 -23.593920 180.000000 179.999985 137.565735 179.999985 -179.999985 137.565765 0.000005 -0.000007 -28.261213 180.000000 170.000000 135.946899 179.999985 -179.999985 135.946945 0.000006 -0.000009 -29.339371 0.000012 19.999981 -48.681431 180.000000 -179.999985 106.977753 0.000005 0.000007 -48.632809
5.969409 102.424324 -96.828827 78.706802 70.414871 -57.227753 148.246094 -170.002258 161.862244 13.126522 -0.349201 -3.305364 175.243027 -176.529160 -179.289795 0.000000 0.000000 0.000000 154.892181 177.451141 177.611557 3.566956 -24.284849 -3.573939 0.161290 -3.293115 -1.392203 0.000000 0.000000 0.000000 0.989731 -3.355956 4.902282 1.166965 -3.334120 8.170317 5.090652 -15.548787 10.796912 176.210556 -179.999985 176.070724 166.041397 -135.797974 170.928192 1.797656 13.781698 4.675598 159.501251 152.949127 -159.772720 178.583267 170.110107 171.285080 12.227679 -6.172626 -7.886121 59.190441 8.397504 -8.158927 111.509262 -142.877350 -146.261765 179.655304 -163.187607 -179.882095 0.000814 15.000366 14.977307 0.000712 0.000149 12.254319 0.000501 0.000003 8.578037 179.999725 -179.999527 -105.106712 179.999512 179.999802 -105.106682 0.000040 0.000357 49.878933 179.999725 -169.999390 -100.775612 179.999359 179.999817 -100.775566 0.000050 0.000448 52.763496 179.999664 -159.999130 -99.848885 0.000005 0.000001 110.000015 0.000010 0.000009 79.999992 1.200599 -4.873597 -12.996882 3.364651 -35.301670 -62.581028 172.011765 -137.450928 174.880768 19.497553 -5.112334 5.486854 43.228245 3.338304 23.846577 105.523819 150.143097 150.443207 179.758377 168.378738 179.913086 0.000008 -15.000004 -41.210777 0.000004 0.000005 -33.717884 180.000000 179.999985 156.397491 0.000011 -0.000011 -42.412189 0.000005 0.000005 -42.412235 0.000005 -0.000008 -28.246542 0.000011 10.000001 -44.015747 0.000004 0.000000 -44.015697 0.000005 0.000008 -29.314486 0.000024 19.999992 -48.658390 0.000006 0.000008 -72.987610 0.000003 0.000007 -48.609715
5.977631 102.441010 -96.893745 78.694389 70.451035 -57.160534 148.205322 -169.933411 161.714798 13.141408 -0.076344 -3.295596 175.248077 -176.439011 -179.268417 0.000000 0.000000 0.000000 154.909943 177.380585 177.548187 3.579175 -24.563398 -3.599471 0.179189 -3.174535 -1.369022 0.000000 0.000000 0.000000 0.993862 -3.353743 4.898404 1.170721 -3.331963 8.163855 5.086865 -15.540196 10.787431 176.187653 -179.999985 176.065338 165.991714 -135.821640 170.918869 1.860768 13.763857 4.656624 159.651657 152.829895 -159.939713 178.206848 170.084030 171.334717 12.245705 -6.138865 -8.183641 59.207947 8.068402 -8.491975 111.385757 -143.030762 -146.337982 179.657166 -163.309052 -179.882614 0.000570 15.000090 14.365925 0.000459 -0.000003 11.754070 0.000314 -0.000084 8.227854 179.998810 -179.998810 -105.115425 179.998566 179.999130 -105.115456 0.000306 0.001065 49.873116 179.998962 -169.998520 -100.748535 179.998352 179.999268 -100.748398 0.000272 0.001179 52.781582 179.998810 -159.997803 -99.822899 0.000000 0.000006 110.000023 0.000005 -0.000009 79.999977 1.207301 -4.875778 -13.004482 3.419317 -35.377365 -62.526791 171.961411 -137.427948 174.893967 19.464607 -5.094565 5.509231 43.223217 3.320473 23.822855 105.529671 150.133652 150.440186 179.758224 168.371628 179.913040 0.000013 -14.999987 -41.189796 0.000003 0.000000 -33.700729 0.000001 -0.000002 -23.590527 0.000010 -0.000001 -42.425346 0.000005 0.000004 -42.425407 0.000005 -0.000009 -28.255285 0.000005 10.000004 -44.030136 0.000000 0.000001 -44.030106 0.000004 0.000006 -29.324055 0.000005 20.000002 -48.697620 0.000002 -0.000000 -73.046455 0.000004 0.000004 -48.648914
5.986394 102.454964 -96.969269 78.642868 70.493240 -57.055508 148.166580 -169.839600 161.554703 13.147855 0.184078 -3.275458 175.256470 -176.374695 -179.246368 0.000000 0.000000 0.000000 154.925446 177.381454 177.471268 3.646282 -24.646435 -3.612028 0.149342 -3.250315 -1.316878 0.000000 0.000000 0.000000 0.997155 -3.351588 4.892513 1.173607 -3.329895 8.154062 5.080836 -15.531776 10.773634 176.172348 -179.999985 176.065857 165.968582 -135.853378 170.924561 1.967998 13.743471 4.605121 159.732910 152.744858 -160.038101 177.839386 169.932236 171.373367 12.270734 -6.104447 -8.711699 59.534218 7.440524 -8.923799 111.235962 -143.220520 -146.430115 179.660507 -163.458466 -179.883270 179.999939 165.000015 -165.980927 179.999954 180.000000 -168.529877 179.999969 179.999985 -171.970917 179.997406 -179.998123 -104.861412 179.997559 179.997925 -104.861458 0.000935 0.001910 50.042301 179.997879 -169.997574 -100.517494 179.997269 179.998322 -100.517075 0.000771 0.001994 52.935566 179.997498 -159.996384 -99.556274 0.000012 0.000006 109.999992 0.000005 -0.000011 80.000015 1.225575 -4.873235 -13.011108 3.461152 -35.449951 -62.486053 171.926758 -137.416733 174.916855 19.427284 -5.103519 5.529640 43.218182 3.310203 23.802555 105.534943 150.125168 150.437485 179.758102 168.365219 179.913010 0.000005 -15.000006 -41.206970 0.000008 0.000002 -33.714802 0.000006 0.000006 -23.600363 0.000002 -0.000003 -42.386707 0.000001 0.000000 -42.386662 0.000002 0.000005 -28.229517 0.000000 10.000001 -44.027630 0.000005 0.000005 -44.027618 0.000004 -0.000005 -29.322439 0.000005 20.000002 -48.711037 0.000005 -0.000008 -73.066628 0.000004 -0.000004 -48.662373
